# xmcd CD database file
#
# Track frame offsets:
#	150
#	45171
#	87258
#	134101
#	172359
#	203522
#	257023
#	288658
#	335535
#
# Disc length: 4772 seconds
#
# Revision: 0
# Processed by: cddbd v1.5.2PL0 Copyright (c) Steve Scherf et al.
# Submitted via: CDex 1.51
#
DISCID=8712a209
DTITLE=Jiøí Stivín - Bye Bye Holland
DYEAR=1989
DGENRE=Jazz
TTITLE0=Oh, Lady Be Good
TTITLE1=Riff
TTITLE2=Autumn Leaves
TTITLE3=Stompin' At the Savoy
TTITLE4=Bernie's Tune
TTITLE5=Bay Bay Blackbird
TTITLE6=Stuffy
TTITLE7=Scrapple From the Apple
TTITLE8=C-jam Blues
EXTD=YEAR: 1989
EXTT0=
EXTT1=
EXTT2=
EXTT3=
EXTT4=
EXTT5=
EXTT6=
EXTT7=
EXTT8=
PLAYORDER=
